<svg width="31" height="30" viewBox="0 0 31 30" fill="none" xmlns="http://www.w3.org/2000/svg">
<path fill-rule="evenodd" clip-rule="evenodd" d="M15.8555 0C7.56797 0 0.855469 6.7125 0.855469 15C0.855469 21.6375 5.14922 27.2437 11.1117 29.2313C11.8617 29.3625 12.143 28.9125 12.143 28.5188C12.143 28.1625 12.1242 26.9813 12.1242 25.725C8.35547 26.4188 7.38047 24.8062 7.08047 23.9625C6.91172 23.5312 6.18047 22.2 5.54297 21.8438C5.01797 21.5625 4.26797 20.8687 5.52422 20.85C6.70547 20.8313 7.54922 21.9375 7.83047 22.3875C9.18047 24.6562 11.3367 24.0187 12.1992 23.625C12.3305 22.65 12.7242 21.9937 13.1555 21.6187C9.81797 21.2437 6.33047 19.95 6.33047 14.2125C6.33047 12.5813 6.91172 11.2313 7.86797 10.1813C7.71797 9.80625 7.19297 8.26875 8.01797 6.20625C8.01797 6.20625 9.27422 5.8125 12.143 7.74375C13.343 7.40625 14.618 7.2375 15.893 7.2375C17.168 7.2375 18.443 7.40625 19.643 7.74375C22.5117 5.79375 23.768 6.20625 23.768 6.20625C24.593 8.26875 24.068 9.80625 23.918 10.1813C24.8742 11.2313 25.4555 12.5625 25.4555 14.2125C25.4555 19.9688 21.9492 21.2437 18.6117 21.6187C19.1555 22.0875 19.6242 22.9875 19.6242 24.3937C19.6242 26.4 19.6055 28.0125 19.6055 28.5188C19.6055 28.9125 19.8867 29.3813 20.6367 29.2313C23.6144 28.2259 26.2019 26.3121 28.035 23.7592C29.8682 21.2063 30.8546 18.1429 30.8555 15C30.8555 6.7125 24.143 0 15.8555 0Z" fill="#666666"/>
</svg>
