<svg width="31" height="31" viewBox="0 0 31 31" fill="none" xmlns="http://www.w3.org/2000/svg">
<path d="M15.7305 0.875C7.44699 0.875 0.730469 7.59152 0.730469 15.875C0.730469 24.1585 7.44699 30.875 15.7305 30.875C24.014 30.875 30.7305 24.1585 30.7305 15.875C30.7305 7.59152 24.014 0.875 15.7305 0.875ZM22.9392 12.1819C22.9492 12.3393 22.9492 12.5033 22.9492 12.6641C22.9492 17.5792 19.2059 23.2411 12.3655 23.2411C10.2561 23.2411 8.30078 22.6283 6.65346 21.5737C6.9548 21.6071 7.24275 21.6205 7.55078 21.6205C9.29185 21.6205 10.8923 21.0312 12.168 20.0335C10.534 20 9.16127 18.9286 8.69252 17.4554C9.26507 17.5391 9.78069 17.5391 10.37 17.3884C9.52866 17.2175 8.77246 16.7605 8.22985 16.0953C7.68725 15.43 7.3917 14.5973 7.39341 13.7388V13.692C7.8856 13.9699 8.46484 14.1406 9.07087 14.1641C8.56141 13.8245 8.14361 13.3645 7.8545 12.8249C7.56539 12.2852 7.41392 11.6825 7.4135 11.0703C7.4135 10.3772 7.59431 9.74442 7.91909 9.19531C8.85291 10.3449 10.0182 11.2851 11.3392 11.9548C12.6602 12.6245 14.1073 13.0088 15.5865 13.0826C15.0608 10.5547 16.9492 8.50893 19.2193 8.50893C20.2907 8.50893 21.255 8.95759 21.9347 9.6808C22.7751 9.52344 23.5787 9.2087 24.2952 8.78683C24.0173 9.64732 23.4347 10.3739 22.6613 10.8326C23.4113 10.7522 24.1345 10.5446 24.8041 10.2533C24.2985 10.9967 23.6657 11.6562 22.9392 12.1819Z" fill="#666666"/>
</svg>
