<svg width="30" height="30" viewBox="0 0 30 30" fill="none" xmlns="http://www.w3.org/2000/svg">
<path d="M14.8556 0.600006C6.90257 0.600006 0.455566 7.04701 0.455566 15C0.455566 22.953 6.90257 29.4 14.8556 29.4C22.8086 29.4 29.2556 22.953 29.2556 15C29.2556 7.04701 22.8086 0.600006 14.8556 0.600006ZM11.3306 20.9685H8.41457V11.5845H11.3306V20.9685ZM9.85457 10.4325C8.93357 10.4325 8.33807 9.78001 8.33807 8.97301C8.33807 8.14951 8.95157 7.51651 9.89207 7.51651C10.8326 7.51651 11.4086 8.14951 11.4266 8.97301C11.4266 9.78001 10.8326 10.4325 9.85457 10.4325ZM21.9806 20.9685H19.0646V15.768C19.0646 14.5575 18.6416 13.7355 17.5871 13.7355C16.7816 13.7355 16.3031 14.292 16.0916 14.8275C16.0136 15.018 15.9941 15.288 15.9941 15.5565V20.967H13.0766V14.577C13.0766 13.4055 13.0391 12.426 13.0001 11.583H15.5336L15.6671 12.8865H15.7256C16.1096 12.2745 17.0501 11.3715 18.6236 11.3715C20.5421 11.3715 21.9806 12.657 21.9806 15.42V20.9685Z" fill="#666666"/>
</svg>
